<svg xmlns="http://www.w3.org/2000/svg" width="256" height="256" viewBox="0 0 100 100"><rect width="100" height="100" rx="20" fill="#00141c"></rect><path fill="#fff" d="M45.24 27.71L45.24 27.71L45.24 54.07Q45.24 64.56 38.34 69.70Q31.44 74.84 19.92 74.84L19.92 74.84Q13.64 74.84 8.53 73.22Q3.42 71.60 0.39 68.98L0.39 68.98Q-5.89 63.52-5.89 57.25L-5.89 57.25Q-5.89 56.62-5.44 56.18Q-4.99 55.73-4.37 55.73L-4.37 55.73L11.22 55.73Q12.46 55.73 12.95 57.25L12.95 57.25Q14.26 61.39 19.57 61.39L19.57 61.39Q22.81 61.39 24.71 59.87Q26.61 58.35 26.61 55.52L26.61 55.52L26.61 40.00L1.42 40.00Q0.67 40.00 0.11 39.44Q-0.44 38.89-0.44 38.13L-0.44 38.13L-0.44 27.71Q-0.44 26.95 0.11 26.40Q0.67 25.85 1.42 25.85L1.42 25.85L43.38 25.85Q44.14 25.85 44.69 26.40Q45.24 26.95 45.24 27.71ZM105.89 45.79L105.89 45.79L105.89 54.21Q105.89 61.32 102.44 66.08Q98.99 70.84 93.40 72.84Q87.81 74.84 80.22 74.84Q72.63 74.84 67.04 72.84Q61.45 70.84 58.00 66.08Q54.55 61.32 54.55 54.07L54.55 54.07L54.55 45.93Q54.55 35.51 61.70 30.34Q68.84 25.16 80.22 25.16Q91.61 25.16 98.75 30.34Q105.89 35.51 105.89 45.79ZM73.18 44.48L73.18 44.48L73.18 55.52Q73.18 58.35 75.08 59.87Q76.98 61.39 80.22 61.39Q83.47 61.39 85.36 59.83Q87.26 58.28 87.26 55.45L87.26 55.45L87.26 44.55Q87.26 41.72 85.36 40.17Q83.47 38.62 80.22 38.62Q76.98 38.62 75.08 40.13Q73.18 41.65 73.18 44.48Z"></path></svg>