<svg xmlns="http://www.w3.org/2000/svg" width="100%" height="100%" viewBox="0 0 112.026 8.255">
  <g id="Group_18" data-name="Group 18" transform="translate(-1252.351 -695.046)">
    <path id="Path_201" data-name="Path 201" d="M172.426,81.784V80.271h6.566v1.513h-2.444V88.3h-1.677V81.784Z" transform="translate(1085 615)" fill="#fff"/>
    <path id="Path_202" data-name="Path 202" d="M181.39,88.3V80.272H185.3a1.727,1.727,0,0,1,1.955,1.954v1.327a1.675,1.675,0,0,1-1.082,1.815l1.315,2.583-.2.35H185.85l-1.42-2.793h-1.363V88.3ZM183.067,84h2.165a.309.309,0,0,0,.35-.349V82.133a.309.309,0,0,0-.35-.349h-2.165Z" transform="translate(1085 615)" fill="#fff"/>
    <path id="Path_203" data-name="Path 203" d="M189.354,87.986l2.387-7.714H194.3l2.387,7.714-.209.315h-1.4l-.489-1.629H191.45l-.49,1.629h-1.4Zm2.55-2.827h2.235l-1.025-3.375h-.186Z" transform="translate(1085 615)" fill="#fff"/>
    <path id="Path_204" data-name="Path 204" d="M199.017,88.3V80.272h1.817l3.189,5.271V80.272H205.7V88.3h-1.816l-3.19-5.271V88.3Z" transform="translate(1085 615)" fill="#fff"/>
    <path id="Path_205" data-name="Path 205" d="M208.424,87.7v-.908h3.609a.309.309,0,0,0,.35-.349V85.6a.336.336,0,0,0-.291-.384l-2.27-.465a1.669,1.669,0,0,1-1.4-1.874v-.651a1.729,1.729,0,0,1,1.956-1.955h2.667l.779.6v.908H210.45a.308.308,0,0,0-.349.349v.756a.343.343,0,0,0,.291.384l2.27.454a1.668,1.668,0,0,1,1.4,1.873v.745A1.728,1.728,0,0,1,212.1,88.3h-2.9Z" transform="translate(1085 615)" fill="#fff"/>
    <path id="Path_206" data-name="Path 206" d="M216.783,88.3V80.272H220.7a1.727,1.727,0,0,1,1.955,1.955v1.559a1.728,1.728,0,0,1-1.955,1.955H218.46V88.3Zm1.677-4.073h2.165a.309.309,0,0,0,.35-.349V82.133a.308.308,0,0,0-.35-.348H218.46Z" transform="translate(1085 615)" fill="#fff"/>
    <path id="Path_207" data-name="Path 207" d="M224.164,87.986l2.387-7.714h2.561l2.387,7.714-.209.315h-1.4l-.489-1.629H226.26l-.49,1.629h-1.4Zm2.55-2.827h2.235l-1.025-3.375h-.186Z" transform="translate(1085 615)" fill="#fff"/>
    <path id="Path_208" data-name="Path 208" d="M233.827,88.3V80.272h3.913a1.727,1.727,0,0,1,1.955,1.954v1.327a1.675,1.675,0,0,1-1.082,1.815l1.315,2.583-.2.35h-1.443l-1.42-2.793H235.5V88.3ZM235.5,84h2.165a.309.309,0,0,0,.35-.349V82.133a.309.309,0,0,0-.35-.349H235.5Z" transform="translate(1085 615)" fill="#fff"/>
    <path id="Path_209" data-name="Path 209" d="M242.536,88.3V80.272h5.495v1.513h-3.818v1.629h3.469v1.512h-3.469v1.862h3.818V88.3Z" transform="translate(1085 615)" fill="#fff"/>
    <path id="Path_210" data-name="Path 210" d="M250.732,88.3V80.272h1.817l3.189,5.271V80.272h1.677V88.3H255.6l-3.19-5.271V88.3Z" transform="translate(1085 615)" fill="#fff"/>
    <path id="Path_211" data-name="Path 211" d="M260.373,86.346V82.227a1.728,1.728,0,0,1,1.956-1.955h3.108l.781.6v.907H262.4a.309.309,0,0,0-.349.349v4.306a.308.308,0,0,0,.349.349h3.819V87.7l-.781.605h-3.108a1.729,1.729,0,0,1-1.956-1.955" transform="translate(1085 615)" fill="#fff"/>
    <path id="Path_212" data-name="Path 212" d="M268.173,80.586l.2-.314H269.8l1.747,3.409,1.747-3.409h1.431l.2.314-2.538,4.876V88.3h-1.677V85.462Z" transform="translate(1085 615)" fill="#fff"/>
    <path id="Path_213" data-name="Path 213" d="M167.863,88.3h-.511V86.084h.511v.826h2.2v.565h-2.2Z" transform="translate(1085 615)" fill="#fff"/>
    <path id="Path_214" data-name="Path 214" d="M170.065,85.274h-2.714v-.566h1.062V83.7h-1.062v-.566h2.714V83.7h-1.14v1.006h1.14Z" transform="translate(1085 615)" fill="#fff"/>
    <path id="Path_215" data-name="Path 215" d="M170.065,82.1h-2.714V80.244h.512v1.289h.55V80.361h.512v1.172h.629V80.244h.511Z" transform="translate(1085 615)" fill="#fff"/>
    <path id="Path_216" data-name="Path 216" d="M278.647,87.314h-1.538a.644.644,0,0,1-.729-.729v-1.16l.225-.29h.339v1.424a.115.115,0,0,0,.13.13h1.608a.115.115,0,0,0,.13-.13V85.135h.339l.226.29v1.16a.645.645,0,0,1-.73.729" transform="translate(1085 615)" fill="#fff"/>
    <path id="Path_217" data-name="Path 217" d="M278.647,84.171h-1.538a.644.644,0,0,1-.729-.729v-.99a.645.645,0,0,1,.729-.73h1.538a.646.646,0,0,1,.73.73v.99a.645.645,0,0,1-.73.729m.035-.625a.115.115,0,0,0,.13-.131v-.937a.115.115,0,0,0-.13-.13h-1.607a.115.115,0,0,0-.131.13v.937a.116.116,0,0,0,.131.131Z" transform="translate(1085 615)" fill="#fff"/>
    <rect id="Rectangle_136" data-name="Rectangle 136" width="0.621" height="0.647" transform="translate(1363.755 695.046)" fill="#fff"/>
  </g>
</svg>
