<svg xmlns="http://www.w3.org/2000/svg" width="100%" height="100%" viewBox="0 0 100.052 100">
  <g id="Group_17" data-name="Group 17" transform="translate(-1085 -615)">
    <path id="Path_277" data-name="Path 277" d="M50.026.562A49.438,49.438,0,1,0,99.49,50,49.451,49.451,0,0,0,50.026.562" transform="translate(1085 615)" fill="#fff"/>
    <path id="Path_278" data-name="Path 278" d="M82.065,50A32.039,32.039,0,1,1,50.026,17.978,32.03,32.03,0,0,1,82.065,50" transform="translate(1085 615)" fill="#3338ff"/>
    <path id="Path_279" data-name="Path 279" d="M92.871,31.909a46.534,46.534,0,0,0-85.691,0A46.5,46.5,0,0,0,82.906,82.863a46.509,46.509,0,0,0,9.965-50.954M50.025,4.673A45.41,45.41,0,0,1,91.049,30.688L79.632,36.815a32.428,32.428,0,0,0-59.213,0L9,30.688A45.411,45.411,0,0,1,50.025,4.673M81.28,50A31.255,31.255,0,1,1,50.025,18.761,31.282,31.282,0,0,1,81.28,50m-76.6,0A45.048,45.048,0,0,1,8.522,31.736l2.087,1.12,1.017.545,2.1,1.127,1.018.546,2.1,1.128,1.018.547,2.1,1.128a32.485,32.485,0,0,0,.2,24.73q.252.594.526,1.176l-1.95,1.42-.944.687-1.947,1.416-.942.685L12.968,69.4l-.938.683-1.926,1.4A45.023,45.023,0,0,1,4.675,50m45.35,45.326A45.381,45.381,0,0,1,10.668,72.5l10.541-7.671a32.431,32.431,0,0,0,57.633,0L89.383,72.5A45.384,45.384,0,0,1,50.025,95.326M87.082,69.4,85.14,67.991l-.941-.685L82.253,65.89l-.944-.687-1.952-1.42q.274-.582.526-1.176a32.479,32.479,0,0,0,.2-24.73l2.1-1.128,1.019-.547,2.1-1.128,1.018-.546,2.1-1.127,1.016-.545,2.088-1.12a45.266,45.266,0,0,1-1.582,39.752l-1.926-1.4Z" transform="translate(1085 615)" fill="#3338ff"/>
    <path id="Path_280" data-name="Path 280" d="M96.12,30.538a50.06,50.06,0,0,0-92.188,0A50.022,50.022,0,0,0,85.4,85.356,50.03,50.03,0,0,0,96.12,30.538M50.026,98.851A48.851,48.851,0,1,1,98.9,50,48.919,48.919,0,0,1,50.026,98.851" transform="translate(1085 615)" fill="#000c54"/>
    <path id="Path_281" data-name="Path 281" d="M55.143,32.671V36.93a10.571,10.571,0,0,0-8.47-4.259H30.44V47.132H47.053A10.56,10.56,0,0,0,42.791,55.6V71.823H57.26V47.132H69.611V32.671ZM32.557,45.016V34.787H46.673a8.478,8.478,0,0,1,8.47,8.466v1.763H32.557Zm22.586,24.69H44.909V55.6a8.477,8.477,0,0,1,8.469-8.465h1.765Zm12.351-24.69H57.26V34.787H67.494Z" transform="translate(1085 615)" fill="#fff"/>
    <path id="Path_282" data-name="Path 282" d="M15.562,27.866l-1.036-.809,3.514-4.5,1.036.81-1.309,1.675,4.462,3.486-.9,1.148-4.462-3.487Z" transform="translate(1085 615)" fill="#000c54"/>
    <path id="Path_283" data-name="Path 283" d="M24.906,25.487l-4.531-5.306,2.585-2.208a1.5,1.5,0,0,1,2.4.189l.75.876a1.457,1.457,0,0,1,.308,1.811l2.327.964.067.343-.954.814-2.515-1.044-.9.77,1.576,1.845ZM23.584,21.7l1.432-1.223a.267.267,0,0,0,.033-.427l-.854-1a.268.268,0,0,0-.427-.035l-1.432,1.223Z" transform="translate(1085 615)" fill="#000c54"/>
    <path id="Path_284" data-name="Path 284" d="M29.819,19.4l-2.506-4.646,1.283-.692,2.543,4.718a.268.268,0,0,0,.41.123l1.748-.94a.271.271,0,0,0,.123-.412l-2.543-4.717,1.282-.692,2.505,4.647a1.5,1.5,0,0,1-.692,2.3l-1.852,1a1.5,1.5,0,0,1-2.3-.689" transform="translate(1085 615)" fill="#000c54"/>
    <path id="Path_285" data-name="Path 285" d="M37.766,17.4,35.8,10.708,40.38,9.361l.37,1.262-3.183.935.4,1.359,2.893-.851.371,1.262-2.894.85.457,1.552,3.184-.935.371,1.26Z" transform="translate(1085 615)" fill="#000c54"/>
    <path id="Path_286" data-name="Path 286" d="M44.517,15.661l-.59-6.953,3.388-.287A1.5,1.5,0,0,1,49.152,9.97l.1,1.149a1.457,1.457,0,0,1-.805,1.651l1.329,2.141-.146.317-1.25.105L46.943,13.02l-1.18.1.2,2.418Zm1.135-3.851,1.876-.159a.268.268,0,0,0,.276-.328l-.111-1.31a.268.268,0,0,0-.328-.277L45.49,9.9Z" transform="translate(1085 615)" fill="#000c54"/>
    <path id="Path_287" data-name="Path 287" d="M51.926,15.3l.792-6.932,4.745.542-.149,1.306-3.3-.377-.161,1.407,2.995.342L56.7,12.9l-3-.343-.183,1.607,3.3.377-.149,1.307Z" transform="translate(1085 615)" fill="#000c54"/>
    <path id="Path_288" data-name="Path 288" d="M60.278,9.745l.259-.2,1.22.4-.25,5.876.154.051,3.28-4.886,1.211.4.089.316-3.97,5.756-2.192-.718Z" transform="translate(1085 615)" fill="#000c54"/>
    <rect id="Rectangle_139" data-name="Rectangle 139" width="6.977" height="1.457" transform="translate(1150.877 634.004) rotate(-62.542)" fill="#000c54"/>
    <path id="Path_289" data-name="Path 289" d="M69.424,20.942l4.131-5.623L77.4,18.146l-.778,1.06L73.95,17.241l-.838,1.141,2.43,1.786-.778,1.058-2.43-1.785-.958,1.305,2.674,1.965-.778,1.058Z" transform="translate(1085 615)" fill="#000c54"/>
    <path id="Path_290" data-name="Path 290" d="M79.75,20.394l.339-.021.765.917-3.625,4.494.072.085,4.6-2.28.922,1.1-3.061,4.128.071.085,5.065-2.77.766.916-.079.33-6.021,3.252-1.486-1.778,2.274-3.034-3.389,1.7-1.487-1.777Z" transform="translate(1085 615)" fill="#000c54"/>
    <path id="Path_291" data-name="Path 291" d="M16.179,72.8l2.842-2.176a1.5,1.5,0,0,1,2.382.317l1.642,2.144,0,.858-.626.479L20.4,71.786a.268.268,0,0,0-.425-.056L17,74a.269.269,0,0,0-.056.426l2.018,2.635-.627.479-.829-.219-1.642-2.144a1.5,1.5,0,0,1,.315-2.383" transform="translate(1085 615)" fill="#000c54"/>
    <path id="Path_292" data-name="Path 292" d="M19.508,79.56l4.75-5.111,3.5,3.25-.894.963L24.43,76.4l-.963,1.037,2.208,2.053-.9.963L22.571,78.4l-1.1,1.184L23.9,81.847l-.9.964Z" transform="translate(1085 615)" fill="#000c54"/>
    <path id="Path_293" data-name="Path 293" d="M24.856,84.243l3.8-5.85,2.85,1.854a1.5,1.5,0,0,1,.5,2.351l-.628.966a1.457,1.457,0,0,1-1.65.81l-.264,2.5-.31.161L28.1,86.355l.288-2.707L27.4,83l-1.323,2.035ZM28.118,81.9l1.577,1.025a.268.268,0,0,0,.42-.088l.717-1.1a.269.269,0,0,0-.089-.42L29.165,80.29Z" transform="translate(1085 615)" fill="#000c54"/>
    <path id="Path_294" data-name="Path 294" d="M32.984,82.7l.516-1.209,5.249,2.238-.516,1.209-1.954-.833-2.222,5.209-1.34-.571,2.221-5.209Z" transform="translate(1085 615)" fill="#000c54"/>
    <rect id="Rectangle_140" data-name="Rectangle 140" width="6.977" height="1.456" transform="translate(1122.831 705.645) rotate(-74.326)" fill="#000c54"/>
    <path id="Path_295" data-name="Path 295" d="M41.592,91.633l1.032-6.9,4.723.706-.194,1.3-3.283-.49-.254,1.7,2.982.446-.194,1.3-2.982-.447-.389,2.6Z" transform="translate(1085 615)" fill="#000c54"/>
    <rect id="Rectangle_141" data-name="Rectangle 141" width="6.977" height="1.457" transform="matrix(0.025, -1, 1, 0.025, 1133.235, 707.385)" fill="#000c54"/>
    <path id="Path_296" data-name="Path 296" d="M51.841,90.748l-.367-3.561a1.5,1.5,0,0,1,1.516-1.864l2.687-.277.728.453.082.785-3.3.34a.269.269,0,0,0-.271.333l.384,3.722a.269.269,0,0,0,.333.271l3.3-.341.081.785-.62.592-2.688.278a1.5,1.5,0,0,1-1.864-1.516" transform="translate(1085 615)" fill="#000c54"/>
    <path id="Path_297" data-name="Path 297" d="M58.694,91.376l.131-7.018,2.138-.617,3.854,5.865-.1.313-1.167.336-.8-1.242-2.625.759-.014,1.478-1.167.337ZM60.14,88.4l1.866-.539-1.669-2.57-.156.045Z" transform="translate(1085 615)" fill="#000c54"/>
    <path id="Path_298" data-name="Path 298" d="M63.264,84.419,62.7,83.232l5.15-2.457.565,1.188-1.917.914,2.438,5.111-1.316.627L65.182,83.5Z" transform="translate(1085 615)" fill="#000c54"/>
    <rect id="Rectangle_142" data-name="Rectangle 142" width="1.457" height="6.977" transform="translate(1153.633 695.182) rotate(-32.872)" fill="#000c54"/>
    <path id="Path_299" data-name="Path 299" d="M74.552,82.638l-2.346-2.706a1.5,1.5,0,0,1,.172-2.4l1.743-1.512a1.5,1.5,0,0,1,2.4.17L78.863,78.9a1.5,1.5,0,0,1-.172,2.4l-1.742,1.51a1.5,1.5,0,0,1-2.4-.169m1.153-.894a.269.269,0,0,0,.429.03l1.65-1.431a.268.268,0,0,0,.031-.428l-2.451-2.827a.269.269,0,0,0-.429-.031l-1.65,1.432a.268.268,0,0,0-.031.428Z" transform="translate(1085 615)" fill="#000c54"/>
    <path id="Path_300" data-name="Path 300" d="M81.827,78.231,76.31,73.96l.966-1.249,5.32.613-3.623-2.8.892-1.152,5.518,4.271-.967,1.248L79.1,74.275l3.622,2.8Z" transform="translate(1085 615)" fill="#000c54"/>
    <path id="Path_301" data-name="Path 301" d="M7.523,51.124,9.392,50l.49-2.124,1.646,1.43,2.172-.19-.852,2.006L13.7,53.13l-2.172-.19L9.882,54.37l-.49-2.123Z" transform="translate(1085 615)" fill="#000c54"/>
    <path id="Path_302" data-name="Path 302" d="M10.483,62.166l.8-1.445-.483-1.58,1.623.315,1.353-.947.2,1.64,1.32.994-1.5.7L13.263,63.4,12.136,62.2Z" transform="translate(1085 615)" fill="#000c54"/>
    <path id="Path_303" data-name="Path 303" d="M10.483,40.081l1.653-.029,1.127-1.208.538,1.562,1.5.7-1.32.994-.2,1.64-1.353-.947-1.623.315.483-1.58Z" transform="translate(1085 615)" fill="#000c54"/>
    <path id="Path_304" data-name="Path 304" d="M94.016,51.154,92.1,52.307l-.5,2.18L89.9,53.019l-2.231.195.875-2.06-.875-2.06,2.231.195,1.689-1.468L92.1,50Z" transform="translate(1085 615)" fill="#000c54"/>
    <path id="Path_305" data-name="Path 305" d="M90.976,39.815,90.153,41.3l.5,1.622L88.983,42.6l-1.39.973-.207-1.683-1.355-1.021,1.538-.717.553-1.6,1.157,1.24Z" transform="translate(1085 615)" fill="#000c54"/>
    <path id="Path_306" data-name="Path 306" d="M90.976,62.493l-1.7.03-1.157,1.24-.553-1.6-1.538-.717,1.355-1.02.207-1.684,1.39.973,1.666-.324-.5,1.622Z" transform="translate(1085 615)" fill="#000c54"/>
  </g>
</svg>
